# Blender 3.1.0
# www.blender.org
mtllib StructureScene2.mtl
o Wall
v -29.635880 -0.058487 30.033989
v -29.656439 6.015416 30.015768
v -29.635880 -0.058486 -30.509754
v 29.719683 -0.058486 -30.509754
v -29.635880 6.029546 -30.509754
v 29.719683 6.029546 -30.509754
v -29.646160 2.978464 30.024879
v -29.635880 2.985530 -30.509754
v 0.041902 -0.058486 -30.509754
v 29.719683 2.985530 -30.509754
v 0.041902 6.029546 -30.509754
v -29.646160 6.022481 -0.246994
v -29.635880 -0.058486 -0.237883
v -29.641020 2.981997 -0.242437
v 0.041902 2.985530 -30.509754
v 29.719782 -0.058486 -30.490242
v 29.719782 6.029546 -30.490242
v 29.719805 -0.058487 30.053503
v 29.719805 6.029545 30.053503
v 29.719782 2.985530 -30.490242
v 29.719805 2.985528 30.053503
v 29.719791 -0.058486 -0.218369
v 29.719791 6.029545 -0.218369
v 29.719791 2.985529 -0.218369
v 29.635880 -0.058487 30.033979
v -29.719683 -0.058487 30.033998
v 29.656439 6.015416 30.052200
v -29.719683 6.029544 30.033998
v 29.646160 2.978464 30.043089
v -0.041902 -0.058487 30.033989
v -29.719683 2.985528 30.033998
v -0.031623 6.022480 30.043098
v -0.036762 2.981996 30.038544
vn -0.0000 -0.0000 2.4163
vn 2.4744 0.0003 0.0006
vn 2.4743 0.0010 0.0006
vn 2.4743 0.0010 0.0002
vn 2.4744 0.0003 0.0002
vn -2.4744 -0.0000 -0.0000
vn 0.0006 0.0003 -2.4163
vn 0.0006 0.0009 -2.4163
vn 0.0002 0.0009 -2.4163
vn 0.0002 0.0003 -2.4163
vt 0.000000 0.000000
vt 0.000000 1.000000
vt 1.000000 0.000000
vt 0.000000 0.000000
vt 1.000000 0.000000
vt 1.000000 1.000000
vt 0.000000 1.000000
vt 1.000000 1.000000
vt 0.000000 0.003568
vt 0.000000 0.996432
vt 1.000000 0.003568
vt 1.000000 0.992261
vt 0.000000 0.007739
vt 0.000000 1.000604
vt 0.994356 0.000000
vt 0.005644 0.000000
vt 1.000000 0.007739
vt 1.000000 0.992261
vt 0.005644 1.000000
vt 0.994356 1.000000
vt 0.000958 1.000000
vt 0.996699 1.000000
vt 0.999042 0.000000
vt 0.005644 0.000000
vt 0.000958 0.003568
vt 0.996699 0.003568
vt 0.999042 0.996432
vt 0.005644 0.992261
vt 0.005644 0.007739
vt 0.994356 0.007739
vt 0.994356 1.000604
vt 0.005644 0.992261
vt 0.000000 0.000000
vt 0.000000 1.000000
vt 1.000000 0.000000
vt 1.000000 1.000000
vt 0.000000 0.016083
vt 0.000000 0.996432
vt 1.000000 -0.000604
vt 1.000000 0.988089
vt 0.994356 0.000000
vt 0.003301 0.000000
vt 0.005644 1.000000
vt 1.001385 1.000000
vt 0.005644 -0.000604
vt 1.001385 0.016083
vt 0.994356 0.996432
vt 0.003301 0.988089
vt 0.000000 0.000000
vt 1.000000 0.000000
vt 0.000000 1.000000
vt 1.000000 1.000000
vt 0.000000 0.011911
vt 0.000000 0.996432
vt 0.996699 0.000000
vt 0.005644 0.000000
vt 1.000000 0.011911
vt 1.000000 0.996432
vt 0.005644 1.000000
vt 0.996699 1.000000
vt 0.005644 0.011911
vt 0.996699 0.011911
vt 0.996699 0.996432
vt 0.005644 0.996432
s 0
usemtl Material.001
f 15/29/1 10/17/1 6/8/1 11/19/1
f 14/25/2 8/11/2 5/6/2 12/21/2
f 7/9/3 14/26/3 12/22/3 2/2/3
f 1/1/4 13/23/4 14/27/4 7/10/4
f 13/24/5 3/3/5 8/12/5 14/28/5
f 8/13/1 15/30/1 11/20/1 5/7/1
f 3/4/1 9/15/1 15/31/1 8/14/1
f 9/16/1 4/5/1 10/18/1 15/32/1
f 24/45/6 21/39/6 19/36/6 23/43/6
f 20/37/6 24/46/6 23/44/6 17/34/6
f 16/33/6 22/41/6 24/47/6 20/38/6
f 22/42/6 18/35/6 21/40/6 24/48/6
f 33/61/7 31/57/7 28/52/7 32/59/7
f 29/53/8 33/62/8 32/60/8 27/51/8
f 25/49/9 30/55/9 33/63/9 29/54/9
f 30/56/10 26/50/10 31/58/10 33/64/10
o Roof
v 29.656437 6.007574 30.015768
v -29.719685 5.993465 30.033989
v 29.635878 5.993444 -30.509754
v -29.719685 5.993463 -30.509754
v -0.031624 6.000520 30.024878
v -0.041903 5.993454 -30.509754
v 29.646158 6.000509 -0.246994
v -29.719685 5.993464 -0.237883
v -0.036764 5.996987 -0.242437
vn 0.0004 -1.0000 0.0003
vn 0.0004 -1.0000 0.0010
vn 0.0011 -1.0000 0.0010
vn 0.0011 -1.0000 0.0003
vt 0.000000 0.000000
vt 1.000000 0.000000
vt 0.000000 1.000000
vt 1.000000 1.000000
vt 0.996699 0.000000
vt 0.005644 0.000000
vt 0.005644 1.000000
vt 0.994356 1.000000
vt 0.000000 0.016083
vt 0.000000 0.992261
vt 1.000000 0.011911
vt 1.000000 0.992261
vt 0.005644 0.011911
vt 0.994356 0.016083
vt 0.996699 0.992261
vt 0.005644 0.992261
s 0
f 42/77/11 41/75/11 37/68/11 39/71/11
f 40/73/12 42/78/12 39/72/12 36/67/12
f 34/65/13 38/69/13 42/79/13 40/74/13
f 38/70/14 35/66/14 41/76/14 42/80/14
o Floor
v -29.635880 -0.058487 30.033989
v 29.719683 -0.058487 30.033989
v -29.635880 -0.058486 -30.509754
v 29.719683 -0.058486 -30.509754
v 0.041902 -0.058487 30.033989
v 0.041902 -0.058486 -30.509754
v 29.719683 -0.058486 -0.237883
v -29.635880 -0.058486 -0.237883
v 0.041902 -0.058486 -0.237883
vn -0.0000 1.0000 -0.0000
vt 0.000000 0.000000
vt 1.000000 0.000000
vt 0.000000 1.000000
vt 1.000000 1.000000
vt 0.994356 0.000000
vt 0.000958 0.000000
vt 0.005644 1.000000
vt 0.996699 1.000000
vt 1.000000 0.007739
vt 1.000000 0.992261
vt 0.000000 0.003568
vt 0.000000 0.992261
vt 0.005644 0.007739
vt 0.996699 0.003568
vt 0.994356 0.992261
vt 0.000958 0.992261
s 0
f 51/93/15 49/89/15 46/84/15 48/87/15
f 50/91/15 51/94/15 48/88/15 45/83/15
f 43/81/15 47/85/15 51/95/15 50/92/15
f 47/86/15 44/82/15 49/90/15 51/96/15
