# Blender 3.1.0
# www.blender.org
mtllib WallsAndFloor2.mtl
o Wall
v 14.242080 0.014991 -1.751223
v 14.242080 6.551959 -1.751222
v 14.242080 6.551959 -1.523171
v 14.242080 0.014991 -1.523172
v 14.242080 6.551960 -8.409212
v 14.242080 0.014992 -8.409213
v 14.242080 0.014992 -8.619338
v 14.242080 6.551960 -8.619337
v 14.242080 2.473998 -4.496801
v 14.242080 5.408100 -4.496800
v 14.242080 5.408101 -6.917900
v 14.020927 0.014992 -8.619338
v 14.020927 6.551960 -8.619337
v -1.847013 0.014992 -8.619338
v -1.847013 6.551960 -8.619337
v 14.242080 2.473998 -6.917900
v -2.061381 0.014992 -8.409246
v -2.061381 6.551960 -8.409245
v -2.061381 6.551960 -8.619337
v -2.061381 0.014992 -8.619338
v -2.061381 6.551959 1.912484
v -2.061381 0.014990 1.912483
v -2.061381 0.014990 2.193531
v -2.061381 6.551959 2.193532
v -1.847013 0.014990 2.193531
v -1.847013 6.551959 2.193532
v -1.397795 0.112836 2.193531
v -1.397795 5.923474 2.193532
v 1.023305 5.923474 2.193532
v 1.438973 6.551959 2.193532
v 14.254305 0.014990 1.912483
v 14.254305 6.551959 1.912484
v 14.254305 6.551959 2.193532
v 14.254305 0.014990 2.193531
v 14.254305 6.043106 2.902071
v 14.254305 4.590446 5.323171
v 14.254305 6.551957 10.058507
v 14.254305 0.014989 10.058506
v 14.053391 6.551957 10.319090
v 14.053391 0.014989 10.319089
v 14.254305 0.014989 10.319089
v 14.254305 6.551957 10.319090
v 9.333681 6.551957 10.319090
v 9.333681 0.014989 10.319089
v 9.058102 0.014989 10.319089
v 9.058102 6.551957 10.319090
v 1.746096 6.551957 10.319090
v 1.746096 0.014989 10.319089
v 1.455872 6.551957 10.319090
v 1.455872 0.014989 10.319089
v -1.811611 6.551957 10.058507
v -1.811611 0.014989 10.058506
v -1.811611 0.014989 10.319089
v -1.811611 6.551957 10.319090
v 1.455872 6.551957 10.058507
v 1.455872 0.014989 10.058506
v 1.438973 0.014990 2.193531
v 1.440093 5.891390 2.715096
v 1.440093 0.080753 2.715095
v 1.454920 0.080752 9.615229
v -2.061381 5.751657 -5.770247
v -2.061381 5.751657 0.040391
v -2.061381 2.120009 -5.770248
v -2.061381 2.120008 0.040390
v 14.254305 6.043106 5.323171
v 1.454920 5.891389 9.615230
v 1.023305 0.112836 2.193531
v 9.130306 0.014991 -3.203883
v 9.130306 6.551959 -3.203882
v 9.372416 6.551959 -3.203882
v 9.372416 0.014991 -3.203883
v 14.040842 0.014991 -1.751223
v 14.025499 0.011596 10.212482
v 14.047115 6.551959 10.656102
v 14.242080 6.551959 -1.751222
v 14.242080 0.014991 -1.523172
v 14.242080 0.014991 -1.751223
v 14.020927 0.014992 -8.409246
v 14.242080 0.014992 -8.409213
v 14.242080 6.551960 -8.409212
v 14.020927 6.551960 -8.409245
v 14.242080 6.551960 -8.619337
v 14.020927 6.551960 -8.619337
v 14.020927 0.014992 -8.619338
v 14.242080 0.014992 -8.619338
v -1.847013 0.014992 -8.409246
v -1.847013 6.623099 -8.395424
v -1.847013 0.005117 -8.434252
v -1.852871 0.014990 1.912483
v -1.847013 0.014992 -8.619338
v -1.847013 6.551960 -8.619337
v 14.242080 2.473998 -6.917900
v 14.242080 5.408101 -6.917900
v 14.242080 2.473998 -4.496801
v 14.242080 5.408100 -4.496800
v -2.061381 0.014992 -8.409246
v -2.061381 0.014992 -8.619338
v -2.061381 6.551960 -8.619337
v -2.061381 6.551960 -8.409245
v -2.061381 0.014990 1.912483
v -2.061381 6.551959 1.912484
v -1.830521 6.551959 1.912484
v -2.061381 5.751657 0.040391
v -2.061381 5.751657 -5.770247
v -2.061381 6.551959 2.193532
v -1.847013 6.551959 2.193532
v -1.847013 0.014990 2.193531
v -2.061381 0.014990 2.193531
v 1.438973 0.014990 2.193531
v 1.751441 0.014990 2.193531
v 1.438973 6.551959 2.193532
v 1.751441 6.551959 2.193532
v 9.059364 6.551959 2.193532
v 9.059364 6.551959 1.912484
v 9.346741 6.551959 2.193532
v 9.333681 6.551957 10.058507
v 9.059364 0.014990 1.912483
v 9.059364 0.014990 2.193531
v 9.346741 0.014990 2.193531
v 9.333681 0.014989 10.058506
v 14.254304 6.551959 2.193532
v 14.254304 0.014990 1.912483
v 14.254304 0.014990 2.193531
v 14.254304 0.014989 10.058506
v 14.053390 0.014989 10.058506
v 14.254304 0.014989 10.319089
v 14.053390 0.014989 10.319089
v 14.053390 6.551957 10.058507
v 14.254304 6.551957 10.058507
v 14.053390 6.551957 10.319090
v 14.254304 6.551957 10.319090
v 9.333681 6.551957 10.319090
v 9.058102 6.551957 10.058507
v 9.058102 6.551957 10.319090
v 9.333681 0.014989 10.319089
v 9.058102 0.014989 10.319089
v 9.058102 0.014989 10.058506
v 1.746096 0.014989 10.058506
v 1.746096 0.014989 10.319089
v 1.455872 0.014989 10.319089
v 1.455872 0.014989 10.058506
v 1.746096 6.551957 10.058507
v 1.746096 6.551957 10.319090
v 1.455872 6.551957 10.319090
v 1.455872 6.551957 10.058507
v -1.811611 6.551957 10.058507
v -1.811611 6.551957 10.319090
v -1.811611 0.014989 10.319089
v -1.811611 0.014989 10.058506
v 1.751086 0.080753 2.715095
v 1.751086 5.891390 2.715096
v 1.746396 5.891389 9.615230
v -2.061381 2.120009 -5.770248
v -2.061381 2.120008 0.040390
v 14.254304 4.590447 2.902071
v 14.254304 6.043106 2.902071
v 14.254304 4.590446 5.323171
v 14.254304 6.043106 5.323171
v 1.746396 0.080752 9.615229
v 1.440093 0.080753 2.715095
v 1.440093 5.891390 2.715096
v 1.454920 0.080752 9.615229
v 1.454920 5.891389 9.615230
v -1.397795 0.112836 2.193531
v -1.397795 5.923474 2.193532
v 1.023305 0.112836 2.193531
v 1.023305 5.923474 2.193532
vn 0.1211 -0.0000 -0.0000
vn -0.0000 -0.0000 -0.1211
vn -0.1211 -0.0000 -0.0000
vn -0.0000 -0.0000 0.1211
vn 0.1207 -0.0000 -0.0093
vn 0.0061 -0.0242 -0.1185
vn 0.0061 0.0242 -0.1185
vn 0.0688 0.0876 0.0473
vn 0.0689 -0.0875 0.0474
vn -0.0000 -0.1211 -0.0000
vn -0.0001 -0.1211 -0.0000
vn -0.0001 -0.1211 0.0001
vn 0.0018 0.1210 0.0014
vn -0.0000 0.1211 -0.0000
vn 0.0016 0.1096 -0.0514
vn 0.0010 0.0831 -0.0880
vn -0.0168 0.0243 -0.1174
vn -0.0814 -0.0461 -0.0769
vn -0.0480 0.1111 0.0016
vn -0.0480 0.1009 -0.0465
vn -0.0481 0.1111 -0.0020
vn 0.0004 0.0048 0.1210
vn 0.0004 0.0030 0.1210
vn 0.0004 0.0049 0.1210
vn 0.1193 -0.0169 0.0118
vn 0.1193 -0.0171 0.0116
vn 0.1193 -0.0173 0.0115
vn -0.0580 -0.0887 -0.0585
vn -0.1170 0.0258 -0.0175
vn -0.0874 0.0837 0.0016
vn -0.0540 0.1083 0.0028
vn -0.0002 -0.1210 -0.0019
vn -0.0007 -0.1211 -0.0008
vn 0.0012 -0.1165 -0.0330
vn -0.0005 -0.1210 -0.0034
vn 0.1171 0.0231 -0.0202
vn 0.0598 0.1043 -0.0142
vn 0.0834 0.0001 -0.0877
vn 0.0834 -0.0000 -0.0877
vn -0.0848 -0.0020 0.0863
vn -0.0871 0.0012 0.0841
vn -0.0295 -0.1171 0.0089
vn -0.1210 -0.0000 -0.0030
vn 0.1211 -0.0000 0.0007
vn -0.1208 -0.0000 -0.0072
vn -0.0971 -0.0000 -0.0722
vn 0.1169 -0.0000 0.0313
vn 0.0001 -0.0196 0.1195
vn -0.0000 -0.0058 0.1209
vn 0.0010 -0.0524 0.1091
vn 0.0467 0.0814 0.0764
vn 0.1181 -0.0067 0.0258
vn -0.0000 0.1202 0.0143
vn 0.0006 0.1211 -0.0004
vn 0.0005 0.1210 0.0031
vn 0.0012 0.1203 0.0131
vn -0.0001 0.0009 -0.1211
vn -0.0001 0.0008 -0.1211
vn -0.0001 0.0004 -0.1211
vt 0.875001 0.070211
vt 0.053414 0.931741
vt 0.106836 0.899909
vt 1.000000 0.070211
vt 0.975192 0.931741
vt 1.000000 0.072542
vt 0.875001 0.072542
vt 1.000000 0.002148
vt 0.975190 0.259959
vt 0.904844 0.126434
vt 0.875000 0.002148
vt 0.106833 0.126434
vt 0.875001 0.000000
vt 0.124999 0.000000
vt 1.000000 0.000000
vt 0.000000 0.000000
vt 0.400157 0.654716
vt 0.407022 0.580948
vt 0.813896 0.654716
vt 0.813894 0.410431
vt 0.765206 0.299683
vt 0.124999 0.013565
vt 0.979582 0.013565
vt 0.000000 0.013565
vt 0.017197 0.013565
vt 0.979592 0.986851
vt 0.125001 0.986851
vt 0.017207 0.986851
vt 0.000001 0.986851
vt 0.407021 0.299683
vt 0.625001 0.002148
vt 0.942115 0.040812
vt 0.881378 0.005082
vt 0.500001 0.002148
vt 0.807139 0.110192
vt 0.038999 0.040812
vt 0.500001 0.000000
vt 0.000001 1.000000
vt 0.625001 0.000000
vt 0.125001 1.000000
vt 0.500001 0.107664
vt 0.200724 0.079950
vt 0.041867 0.928886
vt 0.625001 0.107664
vt 0.881380 0.995114
vt 0.973104 0.928886
vt 0.625001 0.110537
vt 0.250002 0.214700
vt 0.500001 0.110537
vt 0.375001 0.214700
vt 0.250002 0.201552
vt 0.127837 0.610367
vt 0.311690 0.829622
vt 0.375001 0.201552
vt 0.186148 0.609665
vt 0.122438 0.587875
vt 0.319743 0.739894
vt 0.174267 0.587251
vt 0.172307 0.489894
vt 0.797983 0.256302
vt 0.186148 0.445841
vt 0.197735 0.173941
vt 0.849710 0.173277
vt 0.625001 0.000000
vt 0.750000 0.000000
vt 0.750000 0.002873
vt 0.855823 0.129676
vt 0.625001 0.002873
vt 0.738286 0.108387
vt 0.546680 0.897593
vt 0.750000 0.083275
vt 0.911956 0.980558
vt 0.625001 0.083275
vt 0.250000 0.012323
vt 0.987727 0.031996
vt 0.125001 0.012323
vt 0.511078 0.017241
vt 0.125001 0.000000
vt 0.625001 0.085939
vt 0.250000 0.000000
vt 0.750000 0.085939
vt 0.982809 0.990360
vt 0.250001 0.301815
vt 0.511078 0.990360
vt 0.125001 0.301815
vt 0.125001 0.318718
vt 0.250001 0.318718
vt 0.250001 0.767212
vt 0.125002 0.767212
vt 0.250001 0.785013
vt 0.125002 0.785013
vt 0.875000 0.087393
vt 0.848120 0.927800
vt 0.875000 0.072542
vt 0.176716 0.928117
vt 0.897423 0.072542
vt 0.125002 0.985430
vt 0.897423 0.087393
vt 0.250002 0.985430
vt 0.802983 0.068885
vt 0.192992 0.247906
vt 0.131597 0.069202
vt 0.122438 0.247979
vt 0.126927 0.173277
vt 0.311689 0.173277
vt 0.190571 0.179103
vt 0.127463 0.179191
vt 0.123630 0.243005
vt 0.651074 0.956604
vt 0.149564 0.944445
vt 0.309691 0.939602
vt 0.155877 0.030491
vt 0.651296 0.944445
vt 0.150627 0.258207
vt 0.150636 0.815548
vt 0.673232 0.030491
vt 0.547470 0.067271
vt 0.186463 0.243511
vt 0.319742 0.256302
vt 0.787005 0.027454
vt 0.000000 0.000000
vt 0.514756 0.000000
vt 0.851064 0.032029
vt 0.514756 0.996767
vt 0.003257 0.011603
vt 0.848776 0.979181
vt 0.506572 0.000000
vt 0.003256 0.011607
vt 0.789293 0.979181
vt 0.000000 0.000000
vt 0.506572 0.996565
vt 0.000000 0.000000
vt 0.995944 0.989926
vt 0.000000 0.000000
vt 0.510347 0.981559
vt 0.203176 0.798887
vt 0.507827 0.993230
vt 0.003172 0.011605
vt 0.998123 0.981559
vt 0.000000 0.000000
vt 0.197899 0.798980
vt 0.000000 0.000000
vt 0.000000 0.000000
vt 0.000000 0.000000
vt 0.980412 0.976898
vt 0.996185 0.012002
vt 0.000000 0.000000
vt 0.196959 0.754645
vt 0.000000 0.000000
vt 0.202840 0.754365
vt 0.523495 0.971609
vt 0.000000 0.000000
vt 0.505751 0.008665
vt 0.000000 0.000000
vt 0.000000 0.000000
vt 0.000000 0.000000
vt 0.000000 0.000000
vt 0.964375 0.064447
vt 0.000000 0.000000
vt 0.206850 0.082749
vt 0.518933 0.064513
vt 0.515821 0.975867
vt 0.000000 0.000000
vt 0.991141 0.987040
vt 0.000000 0.000000
vt 0.206531 0.006642
vt 0.011666 0.012028
vt 0.508663 -0.003880
vt 0.010977 0.011889
vt 0.993012 0.031142
vt 0.000000 0.000000
vt 0.000000 0.000000
vt 0.000000 0.000000
vt 0.000000 0.000000
vt 0.000000 0.000000
vt 0.000000 0.000000
vt 0.213164 0.082721
vt 0.000000 0.000000
vt 0.000000 0.000000
vt 0.000000 0.000000
vt 0.213017 0.006581
vt 0.000000 0.000000
vt 0.000000 0.000000
vt 0.016277 0.018058
vt 0.010948 0.012161
vt 0.011401 0.012573
vt 0.996926 -0.004080
vt 0.517462 0.027220
vt 0.000000 0.000000
vt 0.000000 0.000000
vt 0.000000 0.000000
vt 0.000000 0.000000
vt 0.016225 0.018163
vt 0.206491 0.003462
vt 0.213181 0.004393
vt 0.011639 0.009854
vt 0.000000 0.000000
vt 0.010887 0.011970
vt 0.994235 0.305275
vt 0.000000 0.000000
vt 0.799582 0.531864
vt 0.596709 0.146278
vt 0.000000 0.000000
vt 0.011336 0.012662
vt 0.000000 0.000000
vt 0.309836 0.305275
vt 0.010924 0.012044
vt 0.793660 0.951784
vt 0.309858 0.989665
vt 0.518291 0.236113
vt 0.003248 0.011607
vt 0.995440 0.999800
vt 0.000000 0.000000
vt 1.000000 1.001344
vt 0.003274 0.011635
vt 0.990788 0.987763
vt 0.003249 0.011613
vt 0.000000 0.000000
vt 0.513717 0.021366
vt 0.512418 0.987763
vt 1.000000 0.000000
vt 0.003258 0.011618
vt 0.500845 1.000000
vt 0.003276 0.011567
vt 0.000000 0.000000
vt 1.000000 0.000001
vt 0.994233 0.989665
vt 0.003278 0.011648
vt 0.000000 0.000000
vt 0.980042 0.236113
vt 0.003260 0.011604
vt 0.000000 0.000000
vt 0.991950 0.026098
vt 0.513722 0.975777
vt 0.003241 0.011615
vt 0.515014 0.011343
vt 0.000000 0.000000
vt 1.000000 0.993525
vt 0.003165 0.011607
vt 0.000000 0.000000
vt 0.000000 0.000000
vt 0.000000 0.000000
vt 0.991770 0.983374
vt 0.512817 0.017341
vt 0.000000 0.000000
vt 0.000000 0.000000
vt 0.003187 0.011606
vt 0.994882 0.026274
vt 0.994149 0.014361
vt 0.000000 0.000000
vt 0.003173 0.011604
vt 0.003196 0.011604
vt 0.003166 0.011600
vt 0.000000 0.000000
vt 0.003236 0.011604
vt 0.000000 0.000000
vt 0.517404 0.116974
vt 0.000056 0.000458
vt 0.520751 0.861109
vt 0.003239 0.011613
vt 0.000000 0.000000
vt 0.000000 0.000541
vt 0.000000 0.000000
vt 0.000000 0.000000
vt 0.003240 0.011615
vt 0.929989 0.110504
vt 0.000000 0.000000
vt 0.975124 0.861109
vt 0.926871 0.877004
vt 0.000000 0.000000
vt 0.469750 0.127198
vt 0.000000 0.000000
vt 0.000000 0.000000
vt 0.000000 0.000000
vt 0.526983 0.902553
vt 0.000000 0.000000
vt 0.009269 0.014554
vt 0.462271 0.938357
vt 0.469750 0.794987
vt 0.009213 0.014636
vt 0.000000 0.000000
vt 0.009579 0.015195
vt 0.000000 0.000000
vt 0.009634 0.015113
vt 0.000000 0.000000
vt 0.000000 0.000000
vt 0.000000 0.000000
vt 0.000000 0.000000
vt 0.568480 0.531861
vt 0.600941 0.642349
vt 0.000000 0.000000
vt 0.568130 0.532181
vt 0.000000 0.000000
vt 0.466647 0.537249
vt 0.753292 0.839506
vt 0.000000 0.000000
vt 0.000000 0.000000
vt 0.000000 0.000000
vt 0.000000 0.000000
vt 0.000000 0.000000
vt 0.000000 0.000000
vt 0.000000 0.000000
vt 0.744828 0.635989
vt 0.000000 0.000000
vt 0.000000 0.000000
vt 0.000000 0.000000
vt 0.000000 0.000000
vt 0.000000 0.000000
s 1
usemtl WallPaint
f 1/1/1 2/4/1 3/6/1 4/7/1
f 5/8/1 6/11/1 7/13/1 8/15/1
f 2/5/1 1/2/1 9/17/1 10/19/1 11/20/1 5/9/1
f 12/22/2 13/24/2 8/16/2 7/14/2
f 13/25/2 12/23/2 14/26/2 15/28/2
f 5/10/1 11/21/1 16/30/1 9/18/1 1/3/1 6/12/1
f 17/31/3 18/34/3 19/37/3 20/39/3
f 15/29/2 14/27/2 20/40/2 19/38/2
f 21/41/3 22/44/3 23/47/3 24/49/3
f 25/51/4 26/54/4 24/50/4 23/48/4
f 26/55/4 25/52/4 27/56/4 28/58/4 29/59/4 30/61/4
f 31/64/1 32/65/1 33/66/1 34/68/1
f 39/74/4 40/76/4 41/78/4 42/80/4
f 38/73/1 37/71/1 42/81/1 41/79/1
f 40/77/4 39/75/4 43/82/4 44/84/4
f 45/86/4 46/87/4 47/88/4 48/89/4
f 44/85/4 43/83/4 46/87/4 45/86/4
f 48/89/4 47/88/4 49/90/4 50/91/4
f 51/92/3 52/94/3 53/96/3 54/98/3
f 50/91/4 49/90/4 54/99/4 53/97/4
f 55/100/2 56/102/2 52/95/2 51/93/2
f 56/103/5 57/104/5 30/62/5 58/106/5 59/107/5 60/108/5
f 21/42/3 18/35/3 61/109/3 62/111/3
f 17/32/3 63/113/3 61/110/3 18/36/3
f 17/33/3 22/45/3 64/115/3 63/114/3
f 21/43/3 62/112/3 64/116/3 22/46/3
f 37/72/1 36/70/1 65/117/1 35/69/1 33/67/1
f 66/118/5 58/106/5 30/62/5 55/101/5 56/103/5 60/108/5
f 30/63/4 29/60/4 67/119/4 27/57/4 25/53/4 57/105/4
f 68/120/6 69/123/7 70/126/8 71/129/9
f 77/143/10 72/132/11 78/144/10 79/147/10
f 73/134/12 72/132/11 77/143/10 76/142/12
f 74/136/13 75/141/14 80/148/14 81/150/15
f 81/152/15 80/149/14 82/154/14 83/155/16
f 79/147/10 78/144/10 84/156/10 85/157/10
f 84/156/10 78/144/10 86/159/10 90/171/10
f 78/145/4 81/151/4 87/161/4 86/158/4
f 81/152/15 83/155/16 91/172/17 87/163/18
f 78/146/19 73/133/20 74/137/21 81/153/19
f 73/134/22 92/173/23 93/174/24
f 95/175/25 73/134/26 93/174/27
f 90/171/10 86/159/10 96/176/10 97/178/10
f 87/163/18 91/172/17 98/179/28 99/180/29
f 96/177/10 86/160/10 89/166/10 100/181/10
f 87/163/18 99/180/29 101/182/30 102/183/31
f 88/165/32 103/189/33 104/190/34 87/163/35
f 102/183/31 101/182/30 105/191/14 106/192/14
f 100/181/10 89/166/10 107/194/10 108/195/10
f 109/196/10 89/169/10 110/198/10
f 107/194/10 89/167/10 109/196/10
f 102/184/31 106/193/14 111/204/14
f 102/185/14 112/207/14 113/211/14 114/215/14
f 111/203/4 109/197/4 110/200/4 112/205/4
f 102/186/31 111/204/14 112/207/14
f 114/215/14 113/211/14 115/217/14 116/222/14
f 89/168/36 102/187/37 114/212/2 117/223/2
f 110/198/10 89/169/10 117/224/10 118/228/10
f 112/206/4 110/199/4 118/227/4 113/209/4
f 117/225/38 114/213/39 116/218/38 120/237/39
f 118/228/10 117/224/10 120/235/10 119/231/10
f 113/211/4 118/228/4 119/231/40 115/217/41
f 73/134/42 123/240/10 124/241/10 125/242/10
f 125/242/10 124/241/10 126/245/10 127/246/10
f 121/239/14 74/138/14 128/247/14 129/251/14
f 129/251/14 128/247/14 130/252/14 131/253/14
f 132/254/14 116/218/14 133/256/14 134/261/14
f 130/252/14 128/247/14 116/222/14 132/255/14
f 125/242/10 127/246/10 135/263/10 120/237/10
f 128/248/2 125/243/2 120/234/2 116/219/2
f 120/237/10 135/263/10 136/264/10 137/267/10
f 116/222/2 120/235/2 137/265/2 133/260/2
f 138/270/10 139/272/10 140/273/10 141/274/10
f 137/267/10 136/264/10 139/272/10 138/270/10
f 133/257/2 137/266/2 138/269/2 142/275/2
f 134/262/14 133/258/14 142/277/14 143/280/14
f 144/281/14 145/283/14 146/285/14 147/286/14
f 142/276/2 138/270/2 141/274/2 145/283/2
f 143/280/14 142/277/14 145/284/14 144/282/14
f 141/274/10 140/273/10 148/287/10 149/288/10
f 138/270/14 110/200/14 109/197/14 141/274/14
f 142/277/14 112/207/14 111/204/14 145/284/14
f 142/278/43 112/208/43 110/201/43 150/289/43 151/292/43 152/294/43
f 119/232/14 118/229/14 137/267/14 120/237/14
f 113/210/44 133/259/44 137/268/44 118/230/44
f 116/220/45 115/216/41 119/233/40 120/236/45
f 133/260/10 113/211/10 115/217/10 116/222/10
f 120/237/10 117/225/10 68/121/6 71/130/9
f 68/122/6 117/226/46 114/214/46 69/124/7
f 70/127/8 116/221/47 120/238/47 71/131/9
f 116/222/14 70/128/8 69/125/7 114/215/14
f 104/190/48 153/297/49 87/163/50
f 89/170/36 88/164/51 87/162/52 102/188/37
f 153/297/53 154/298/54 88/165/55 87/163/56
f 103/189/57 88/165/58 154/298/59
f 74/140/4 155/299/4 156/300/4
f 128/249/3 74/139/3 73/135/3 125/244/3
f 128/250/14 157/301/14 155/299/14 74/140/14
f 157/301/2 128/250/2 158/302/2
f 158/302/10 128/250/10 74/140/10 156/300/10
f 152/295/43 159/303/43 150/290/43 110/202/43 138/271/43 142/279/43
f 160/305/4 150/291/4 151/293/4 161/306/4
f 162/307/14 159/304/14 150/291/14 160/305/14
f 159/304/2 162/307/2 163/308/2 152/296/2
f 152/296/10 163/308/10 161/306/10 151/293/10
l 165 167
l 94 95
l 122 123
l 166 167
l 92 94
l 164 165
l 164 166
o Floor
v 9.338721 -0.012108 10.119036
v 9.338721 0.012103 10.119036
v 9.338721 0.012104 2.066528
v 9.338721 -0.012107 2.066527
v 14.120996 0.012104 2.136303
v 14.120996 -0.012107 2.136302
v 14.019321 0.012103 10.119036
v 14.019321 -0.012108 10.119034
v 1.747692 -0.012108 10.070724
v 1.747692 0.012103 10.070723
v 1.747692 0.012104 2.202150
v 1.747692 -0.012107 2.202150
v 9.059412 0.012104 2.202150
v 9.059412 -0.012107 2.202150
v 9.059411 0.012103 10.070723
v 9.059412 -0.012108 10.070723
v -1.848992 -0.012107 1.900981
v -1.848992 0.012104 1.900981
v -1.848991 0.012106 -8.671944
v -1.848991 -0.012105 -8.707924
v 14.076430 0.096551 -8.788709
v 14.182137 0.012104 2.137044
v 13.168371 0.013388 -8.634149
v -1.848992 0.012105 -3.385481
v 6.113720 0.054328 -8.730326
v 14.129284 0.054327 -3.325832
v 6.166573 0.012104 2.019012
v 6.140146 0.033216 -3.355657
v -1.848991 0.012105 -6.028712
v 10.095075 0.075440 -8.759518
v 14.155710 0.033216 -0.594395
v 10.174355 0.012104 2.078028
v -1.848991 0.012104 -0.742250
v 2.132364 0.033217 -8.701135
v 14.102858 0.075439 -6.057271
v 2.158791 0.012104 1.959997
v 6.153359 0.022660 -0.668323
v 6.126933 0.043772 -6.042992
v 10.134715 0.043772 -3.340744
v 2.145577 0.022660 -3.370569
v 2.138971 0.027938 -6.035851
v 10.114895 0.059606 -6.050131
v 10.154534 0.027937 -0.631359
v 2.152184 0.017382 -0.705286
v 9.338721 0.012103 6.068626
v 10.213573 0.012104 2.076493
v 14.070159 0.012103 6.103512
v 10.245987 0.012103 10.119036
v 10.288374 0.012103 6.086068
vn -0.1211 -0.0000 -0.0000
vn 0.0018 -0.0070 -0.1208
vn 0.1210 0.0008 0.0015
vn -0.0000 -0.0000 0.1211
vn -0.0000 -0.1211 -0.0000
vn -0.0000 0.1211 -0.0000
vn -0.0000 -0.0000 -0.1211
vn 0.1211 -0.0000 -0.0000
vn -0.0010 0.1004 -0.0676
vn -0.0002 0.1211 0.0002
vn -0.0002 0.1211 0.0001
vn -0.0001 0.1211 0.0001
vn -0.0001 0.1211 0.0002
vn -0.0002 0.1211 0.0007
vn -0.0002 0.1211 0.0005
vn -0.0001 0.1211 0.0005
vn -0.0001 0.1211 0.0007
vn -0.0005 0.1211 0.0007
vn -0.0005 0.1211 0.0005
vn -0.0003 0.1211 0.0005
vn -0.0003 0.1211 0.0007
vn -0.0005 0.1211 0.0002
vn -0.0005 0.1211 0.0001
vn -0.0003 0.1211 0.0001
vn -0.0003 0.1211 0.0002
vn -0.0006 0.1211 0.0005
vn -0.0006 0.1211 0.0002
vn -0.0006 0.1211 0.0001
vn -0.0005 0.1211 0.0008
vn -0.0003 0.1211 0.0008
vn -0.0006 0.1211 0.0008
vn -0.0006 0.1211 0.0007
vn -0.0002 0.1211 0.0008
vn -0.0001 0.1211 0.0008
vt 0.000000 0.000000
vt 0.000000 0.000000
vt 0.002948 0.008335
vt 0.000000 0.000000
vt 0.497912 0.007096
vt 0.000000 0.000000
vt 0.000000 0.000000
vt 0.501923 0.995728
vt 0.000000 0.000000
vt 0.000000 0.000000
vt 0.001508 1.000601
vt 0.000000 0.000000
vt 0.333333 0.333333
vt 0.666667 0.333333
vt 0.000000 0.000000
vt 0.333333 0.666667
vt 0.333333 0.333333
vt 0.501019 1.000000
vt 0.000000 0.666667
vt 0.666667 1.000000
vt 0.496680 0.004158
vt 0.000000 0.333333
vt 0.666667 0.666667
vt 0.333333 -0.000000
vt 0.333333 1.000000
vt 0.005295 0.008462
vt 0.333333 0.666667
vt 0.333333 0.333333
vt 0.000000 1.000000
vt 0.333333 0.666667
vt 0.002039 1.000000
vt 0.000000 0.666667
vt 0.666667 0.666667
vt 0.000000 0.333333
vt 0.333333 0.333333
vt 0.333333 0.666667
vt 0.498588 1.000000
vt 0.000000 0.666667
vt 0.666667 1.000000
vt 0.500405 -0.002352
vt 0.000000 0.333333
vt 0.666667 0.666667
vt 0.333333 0.666667
vt 0.000907 -0.002352
vt 0.000907 1.000000
vt 0.166666 0.666667
vt 0.499497 0.994056
vt 0.499497 0.000841
vt 0.500000 0.833333
vt 0.005791 -0.002352
vt 0.498272 -0.002352
vt 0.000907 0.999559
vt 0.000907 0.006343
vt 0.498739 1.000000
vt 0.002132 1.000000
vt 0.496442 0.996807
vt 0.006713 0.994056
vt 0.499193 0.000841
vt 0.005337 0.006343
vt 0.083333 0.666667
vt 0.499951 -0.002131
vt 0.499951 0.993835
vt 0.416667 0.750000
vt 0.498581 -0.002352
vt 0.004725 -0.002352
vt 0.000907 -0.004441
vt 0.000907 0.997028
vt 0.005646 1.000000
vt 0.496751 1.000000
vt 0.250000 0.666667
vt 0.499042 0.001061
vt 0.499042 0.999779
vt 0.583333 0.916667
vt 0.497963 -0.002352
vt 0.002731 -0.002352
vt 0.000907 0.003371
vt 0.003658 0.996587
vt 0.004120 1.000000
vt 0.496600 1.000000
vt 0.496215 0.001061
vt 0.500342 0.997028
vt 0.002359 0.003813
vt 0.006486 0.994277
vt 0.495294 -0.004883
vt 0.004189 0.006123
vt 0.006940 0.996587
vt 0.500796 0.999338
vt 0.004498 0.996807
vt 0.502481 0.996807
vt 0.496978 0.003592
vt 0.004498 0.000841
vt 0.003425 0.994056
vt 0.501409 0.994056
vt 0.500033 -0.004662
vt 0.002050 0.006343
vt 0.001015 -0.002131
vt 0.497622 0.006123
vt 0.500373 0.991084
vt 0.002390 0.993835
vt 0.003236 0.000620
vt 0.498468 0.003371
vt 0.499843 0.993835
vt 0.003236 1.004840
vt 0.001633 0.003813
vt 0.499616 -0.004441
vt 0.499616 0.997028
vt 0.005760 0.997028
vt 0.003085 0.001061
vt 0.495565 0.003813
vt 0.501068 0.997028
vt 0.005836 0.997028
vt 0.000000 0.000000
vt 0.501257 0.007716
vt 0.004522 0.007716
vt 0.000000 0.000000
vt 0.499918 0.014512
vt 0.499918 0.186648
vt 0.000000 0.000000
vt 0.495166 0.998164
vt 0.005807 0.998164
vt 0.000000 0.000000
vt 0.002228 0.209378
vt 0.002228 0.022487
vt 0.504359 0.202931
vt 0.494523 0.011122
vt 0.000246 0.016040
vt 0.002705 0.198013
s 1
usemtl Material.003
f 168/309/60 169/310/60 212/420/60 170/312/60 171/314/60
f 171/314/61 170/312/61 213/423/61 172/315/61 173/317/61
f 173/317/62 172/315/62 214/426/62 174/318/62 175/320/62
f 175/320/63 174/318/63 215/429/63 169/310/63 168/309/63
f 171/314/64 173/317/64 175/320/64 168/309/64
f 216/432/65 212/421/65 169/311/65 215/430/65
f 176/321/60 177/324/60 178/327/60 179/330/60
f 179/331/66 178/328/66 180/333/66 181/335/66
f 181/335/67 180/333/67 182/337/67 183/340/67
f 183/341/63 182/338/63 177/325/63 176/322/63
f 179/332/64 181/336/64 183/342/64 176/323/64
f 180/334/65 178/329/65 177/326/65 182/339/65
f 184/343/60 185/344/60 200/378/60 191/354/60 196/368/60 186/346/60 187/349/60
f 187/350/68 186/347/68 201/381/68 192/357/68 197/371/68 188/351/68
f 211/416/69 200/379/70 185/345/71 203/386/72
f 210/412/73 204/388/74 194/362/75 199/376/76
f 209/408/77 205/392/78 195/364/79 206/396/80
f 208/404/81 196/369/82 191/355/83 207/400/84
f 205/393/78 208/405/81 207/401/84 195/365/79
f 192/358/85 201/382/86 208/406/81 205/394/78
f 201/383/86 186/348/87 196/370/82 208/407/81
f 202/384/88 209/409/77 206/397/80 193/360/89
f 188/352/90 197/372/91 209/410/77 202/385/88
f 197/373/91 192/359/85 205/395/78 209/411/77
f 198/374/92 210/413/73 199/377/76 189/353/93
f 193/361/89 206/398/80 210/414/73 198/375/92
f 206/399/80 195/366/79 204/389/74 210/415/73
f 204/390/74 211/417/69 203/387/72 194/363/75
f 195/367/79 207/402/84 211/418/69 204/391/74
f 207/403/84 191/356/83 200/380/70 211/419/69
f 214/427/65 216/433/65 215/431/65 174/319/65
f 172/316/65 213/424/65 216/434/65 214/428/65
f 213/425/65 170/313/65 212/422/65 216/435/65
o Roof
v 14.155617 6.585378 1.909781
v 14.163708 6.563830 -8.663118
v -1.761619 6.479146 -8.791898
v -1.875685 6.585858 2.133574
v 14.155617 6.575168 10.325737
v 14.163707 6.580503 1.906520
v 9.301464 6.583640 1.939668
v 9.331700 6.575649 10.358334
vn 0.0003 -0.1211 0.0007
vn -0.0000 -0.1211 -0.0001
vt 1.000000 1.000000
vt 1.000000 -0.002352
vt 0.501335 0.003433
vt 0.501335 0.997107
vt 1.000000 1.000000
vt 1.000000 -0.002352
vt 0.501335 0.003433
vt 0.501335 0.997107
s 1
usemtl Material.003
f 219/438/94 218/437/94 217/436/94 220/439/94
usemtl Material.001
f 223/442/95 222/441/95 221/440/95 224/443/95
